# xmcd CD database file
#
# Track frame offsets:
#	150
#	21253
#	33643
#	58886
#	73523
#	94389
#	103014
#	121769
#	140951
#	152992
#	167145
#	201601
#	211828
#	227209
#	250988
#
# Disc length: 3695 seconds
#
# Revision: 1
# Processed by: cddbd v1.5.1PL0 Copyright (c) Steve Scherf et al.
# Submitted via: CDex 1.51
#
DISCID=e90e6d0f
DTITLE=Willie Nelson - The Troublemaker
DYEAR=1976
DGENRE=Country
TTITLE0=Uncloudy day
TTITLE1=When the roll is called up yonder
TTITLE2=Whispering hope
TTITLE3=There is a fountain
TTITLE4=Will the circle be unbroken
TTITLE5=The Troublemaker
TTITLE6=In the garden
TTITLE7=Where the soul never dies
TTITLE8=Sweet bye and bye
TTITLE9=Shall we gather
TTITLE10=Precious memories
TTITLE11=The Troublemaker (live)
TTITLE12=Will the circle be unbroken (live)
TTITLE13=When the roll is called up yonder (live)
TTITLE14=Amazing grace (live)
EXTD=Tracks 12-15 previously unreleased bonus tracks   Recorded live in June 1974 at the Texas Opry House in Austin. YEAR: 1976
EXTT0=
EXTT1=
EXTT2=
EXTT3=
EXTT4=
EXTT5=
EXTT6=
EXTT7=
EXTT8=
EXTT9=
EXTT10=
EXTT11=
EXTT12=
EXTT13=
EXTT14=
PLAYORDER=
